<svg xmlns="http://www.w3.org/2000/svg" viewBox="0 0 48 48" width="48px" height="48px">
  <path fill="#24292f" d="M42,37c0,2.762-2.238,5-5,5H11c-2.761,0-5-2.238-5-5V11c0-2.762,2.239-5,5-5h26c2.762,0,5,2.238,5,5V37z"/>
  <path fill="#FFF" d="M24 10c-7.732 0-14 6.268-14 14 0 6.207 4.031 11.446 9.631 13.29.703.13.96-.305.96-.676 0-.334-.013-1.22-.02-2.395-3.922.852-4.746-1.887-4.746-1.887-.64-1.625-1.563-2.058-1.563-2.058-1.276-.874.098-.856.098-.856 1.41.1 2.15 1.448 2.15 1.448 1.254 2.147 3.29 1.526 4.091 1.167.127-.91.49-1.527.891-1.877-3.125-.356-6.418-1.563-6.418-6.954 0-1.535.547-2.79 1.443-3.774-.145-.356-.625-1.79.137-3.73 0 0 1.178-.378 3.86 1.44 1.118-.31 2.318-.465 3.513-.471 1.192.006 2.395.161 3.515.471 2.68-1.819 3.855-1.44 3.855-1.44.764 1.94.285 3.374.14 3.73.898.984 1.444 2.24 1.444 3.774 0 5.405-3.3 6.593-6.432 6.94.505.437.957 1.298.957 2.617 0 1.89-.016 3.416-.016 3.878 0 .374.252.81.97.673 5.595-1.85 9.62-7.085 9.62-13.29 0-7.732-6.268-14-14-14z"/>
</svg>
